<svg xmlns="http://www.w3.org/2000/svg" viewBox="0 0 489.17 43.82"><path d="M24.33,35.22c-1.86,1.82-4.55,2.94-8.06,3.38v5.22H11.61V38.74A25.46,25.46,0,0,1,5,37.52,16.5,16.5,0,0,1,0,35l2.56-5.69a17,17,0,0,0,4.15,2.19,18.84,18.84,0,0,0,4.9,1.12V24.85A34.74,34.74,0,0,1,6,23.07a9.85,9.85,0,0,1-3.82-2.86,7.73,7.73,0,0,1-1.54-5A9,9,0,0,1,3.47,8.55q2.82-2.76,8.14-3.38V0h4.66V5.08a20.55,20.55,0,0,1,9.46,2.84L23.4,13.66a18.5,18.5,0,0,0-7.13-2.43v7.93a33.76,33.76,0,0,1,5.52,1.7,9.64,9.64,0,0,1,3.8,2.84,7.61,7.61,0,0,1,1.54,5A8.81,8.81,0,0,1,24.33,35.22ZM9,16.73A7.23,7.23,0,0,0,11.61,18V11.37A5.1,5.1,0,0,0,9,12.7a3,3,0,0,0-.84,2.12A2.37,2.37,0,0,0,9,16.73Zm9.75,14.5a2.73,2.73,0,0,0,.83-2,2.38,2.38,0,0,0-.86-1.91A7.37,7.37,0,0,0,16.27,26v6.43A5,5,0,0,0,18.79,31.23Z" style="fill:#fbbc05"/><path d="M53.51,18.88v6.06L31.32,33.38V27.55l15.53-5.64L31.32,16.22V10.44Z" style="fill:#fbbc05"/><path d="M95.47,21.4h6.9V34.63a19.67,19.67,0,0,1-6.16,3.08,23.73,23.73,0,0,1-7,1.07A19.11,19.11,0,0,1,80,36.62a16.13,16.13,0,0,1-6.37-6,16.62,16.62,0,0,1-2.3-8.69,16.62,16.62,0,0,1,2.3-8.69,16.11,16.11,0,0,1,6.41-6A19.52,19.52,0,0,1,89.31,5,20.28,20.28,0,0,1,97.1,6.48,15.37,15.37,0,0,1,103,10.67l-4.85,4.48a11.22,11.22,0,0,0-8.43-3.68,11.49,11.49,0,0,0-5.55,1.3,9.33,9.33,0,0,0-3.78,3.69A10.83,10.83,0,0,0,79,21.91a10.78,10.78,0,0,0,1.35,5.41A9.49,9.49,0,0,0,84.12,31a11,11,0,0,0,5.47,1.33A12.28,12.28,0,0,0,95.47,31Z" style="fill:#4285f4"/><path d="M116,36.62a16.25,16.25,0,0,1-6.34-6,16.62,16.62,0,0,1-2.3-8.69,16.62,16.62,0,0,1,2.3-8.69,16.25,16.25,0,0,1,6.34-6,20.18,20.18,0,0,1,16.74-.67,15.32,15.32,0,0,1,5.75,4.28l-4.84,4.48a10.42,10.42,0,0,0-8.21-3.82A10.81,10.81,0,0,0,120,12.8a9.43,9.43,0,0,0-3.71,3.7A10.87,10.87,0,0,0,115,21.91a10.87,10.87,0,0,0,1.33,5.41A9.43,9.43,0,0,0,120,31a10.81,10.81,0,0,0,5.4,1.33,10.38,10.38,0,0,0,8.21-3.87L138.44,33a15.08,15.08,0,0,1-5.78,4.33A19.08,19.08,0,0,1,125,38.78,18.82,18.82,0,0,1,116,36.62Z" style="fill:#4285f4"/><path d="M143.53,5.59h7.55V32.07h16.36v6.15H143.53Z" style="fill:#4285f4"/><path d="M177.76,36.59a16.26,16.26,0,0,1-6.38-6,16.49,16.49,0,0,1-2.31-8.65,16.49,16.49,0,0,1,2.31-8.65,16.26,16.26,0,0,1,6.38-6,20.13,20.13,0,0,1,18.3,0,16.3,16.3,0,0,1,8.72,14.68,16.3,16.3,0,0,1-8.72,14.68,20.21,20.21,0,0,1-18.3,0ZM192.14,31a9.44,9.44,0,0,0,3.66-3.7,10.87,10.87,0,0,0,1.33-5.41,10.87,10.87,0,0,0-1.33-5.41,9.44,9.44,0,0,0-3.66-3.7,10.91,10.91,0,0,0-10.44,0A9.57,9.57,0,0,0,178,16.5a11,11,0,0,0-1.33,5.41A11,11,0,0,0,178,27.32,9.57,9.57,0,0,0,181.7,31a10.91,10.91,0,0,0,10.44,0Z" style="fill:#4285f4"/><path d="M214.08,34.91c-2.6-2.57-3.9-6.26-3.9-11V5.59h7.56v18q0,8.76,7.27,8.76a6.85,6.85,0,0,0,5.41-2.12c1.24-1.41,1.86-3.63,1.86-6.64v-18h7.46V23.87c0,4.78-1.3,8.47-3.89,11s-6.23,3.87-10.89,3.87S216.67,37.49,214.08,34.91Z" style="fill:#4285f4"/><path d="M247.2,5.59H262a20.86,20.86,0,0,1,9.39,2,15.22,15.22,0,0,1,6.34,5.71A16.07,16.07,0,0,1,280,21.91a16.07,16.07,0,0,1-2.26,8.58,15.28,15.28,0,0,1-6.34,5.71,20.85,20.85,0,0,1-9.39,2H247.2ZM261.65,32a10.93,10.93,0,0,0,7.8-2.72,9.61,9.61,0,0,0,2.92-7.39,9.61,9.61,0,0,0-2.92-7.39,10.94,10.94,0,0,0-7.8-2.73h-6.9V32Z" style="fill:#4285f4"/><path d="M284.44,22.19h13.19V28H284.44Z" style="fill:#4285f4"/><path d="M310.66,36.62a16.18,16.18,0,0,1-6.34-6A16.54,16.54,0,0,1,302,21.91a16.54,16.54,0,0,1,2.31-8.69,16.18,16.18,0,0,1,6.34-6,20.18,20.18,0,0,1,16.74-.67,15.32,15.32,0,0,1,5.75,4.28l-4.85,4.48a10.4,10.4,0,0,0-8.2-3.82,10.87,10.87,0,0,0-5.41,1.33,9.4,9.4,0,0,0-3.7,3.7,10.87,10.87,0,0,0-1.33,5.41A10.87,10.87,0,0,0,311,27.32a9.4,9.4,0,0,0,3.7,3.7,10.87,10.87,0,0,0,5.41,1.33,10.36,10.36,0,0,0,8.2-3.87L333.15,33a15.08,15.08,0,0,1-5.78,4.33,19.08,19.08,0,0,1-7.69,1.49A18.79,18.79,0,0,1,310.66,36.62Z" style="fill:#4285f4"/><path d="M344.18,36.59a16.28,16.28,0,0,1-6.39-6,16.49,16.49,0,0,1-2.31-8.65,16.49,16.49,0,0,1,2.31-8.65,16.28,16.28,0,0,1,6.39-6,20.11,20.11,0,0,1,18.29,0,16.3,16.3,0,0,1,8.72,14.68,16.3,16.3,0,0,1-8.72,14.68,20.19,20.19,0,0,1-18.29,0ZM358.56,31a9.57,9.57,0,0,0,3.66-3.7,11,11,0,0,0,1.32-5.41,11,11,0,0,0-1.32-5.41,9.57,9.57,0,0,0-3.66-3.7,10.91,10.91,0,0,0-10.44,0,9.44,9.44,0,0,0-3.66,3.7,10.87,10.87,0,0,0-1.33,5.41,10.87,10.87,0,0,0,1.33,5.41,9.44,9.44,0,0,0,3.66,3.7,10.91,10.91,0,0,0,10.44,0Z" style="fill:#4285f4"/><path d="M406.8,5.59V38.22h-6.2L384.33,18.41V38.22h-7.45V5.59h6.24L399.34,25.4V5.59Z" style="fill:#4285f4"/><path d="M422.09,11.65v8.63H437.2v6.06H422.09V38.22h-7.55V5.59H439.2v6.06Z" style="fill:#4285f4"/><path d="M444.33,5.59h7.55V38.22h-7.55Z" style="fill:#4285f4"/><path d="M481.67,21.4h6.89V34.63a19.51,19.51,0,0,1-6.15,3.08,23.73,23.73,0,0,1-7,1.07,19.11,19.11,0,0,1-9.13-2.16,16.13,16.13,0,0,1-6.37-6,16.53,16.53,0,0,1-2.3-8.69,16.53,16.53,0,0,1,2.3-8.69,16.11,16.11,0,0,1,6.41-6A19.52,19.52,0,0,1,475.51,5a20.28,20.28,0,0,1,7.79,1.45,15.37,15.37,0,0,1,5.87,4.19l-4.85,4.48a11.22,11.22,0,0,0-8.43-3.68,11.49,11.49,0,0,0-5.55,1.3,9.33,9.33,0,0,0-3.78,3.69,10.83,10.83,0,0,0-1.35,5.45,10.78,10.78,0,0,0,1.35,5.41,9.49,9.49,0,0,0,3.76,3.7,11,11,0,0,0,5.47,1.33,12.31,12.31,0,0,0,5.88-1.4Z" style="fill:#4285f4"/></svg>